<mxfile host="app.diagrams.net" agent="Mozilla/5.0 (Windows NT 10.0; Win64; x64) AppleWebKit/537.36 (KHTML, like Gecko) Chrome/129.0.0.0 Safari/537.36" version="24.7.8">
  <diagram name="Page-1" id="GVN91nVcx8osszS6Zsj8">
    <mxGraphModel dx="808" dy="406" grid="1" gridSize="10" guides="1" tooltips="1" connect="1" arrows="1" fold="1" page="1" pageScale="1" pageWidth="850" pageHeight="1100" math="0" shadow="0">
      <root>
        <mxCell id="0" />
        <mxCell id="1" parent="0" />
        <mxCell id="UYZlVFqJ_CUnX_DfaC3p-1" value="model" style="whiteSpace=wrap;html=1;aspect=fixed;" vertex="1" parent="1">
          <mxGeometry x="290" y="60" width="80" height="80" as="geometry" />
        </mxCell>
        <mxCell id="UYZlVFqJ_CUnX_DfaC3p-2" value="model" style="whiteSpace=wrap;html=1;aspect=fixed;" vertex="1" parent="1">
          <mxGeometry x="290" y="200" width="80" height="80" as="geometry" />
        </mxCell>
        <mxCell id="UYZlVFqJ_CUnX_DfaC3p-3" value="model" style="whiteSpace=wrap;html=1;aspect=fixed;" vertex="1" parent="1">
          <mxGeometry x="285" y="330" width="80" height="80" as="geometry" />
        </mxCell>
        <mxCell id="UYZlVFqJ_CUnX_DfaC3p-4" value="" style="endArrow=classic;html=1;rounded=0;entryX=0;entryY=0.25;entryDx=0;entryDy=0;" edge="1" parent="1" target="UYZlVFqJ_CUnX_DfaC3p-2">
          <mxGeometry width="50" height="50" relative="1" as="geometry">
            <mxPoint x="200" y="220" as="sourcePoint" />
            <mxPoint x="280" y="220" as="targetPoint" />
          </mxGeometry>
        </mxCell>
        <mxCell id="UYZlVFqJ_CUnX_DfaC3p-5" value="" style="endArrow=classic;html=1;rounded=0;entryX=0;entryY=0.75;entryDx=0;entryDy=0;" edge="1" parent="1" target="UYZlVFqJ_CUnX_DfaC3p-2">
          <mxGeometry width="50" height="50" relative="1" as="geometry">
            <mxPoint x="200" y="260" as="sourcePoint" />
            <mxPoint x="280" y="250" as="targetPoint" />
          </mxGeometry>
        </mxCell>
        <mxCell id="UYZlVFqJ_CUnX_DfaC3p-6" value="" style="endArrow=classic;html=1;rounded=0;entryX=0;entryY=0.75;entryDx=0;entryDy=0;" edge="1" parent="1">
          <mxGeometry width="50" height="50" relative="1" as="geometry">
            <mxPoint x="195" y="370" as="sourcePoint" />
            <mxPoint x="285" y="369.75" as="targetPoint" />
          </mxGeometry>
        </mxCell>
        <mxCell id="UYZlVFqJ_CUnX_DfaC3p-8" value="X_train" style="text;html=1;align=center;verticalAlign=middle;whiteSpace=wrap;rounded=0;" vertex="1" parent="1">
          <mxGeometry x="210" y="194" width="60" height="30" as="geometry" />
        </mxCell>
        <mxCell id="UYZlVFqJ_CUnX_DfaC3p-9" value="y_train" style="text;html=1;align=center;verticalAlign=middle;whiteSpace=wrap;rounded=0;" vertex="1" parent="1">
          <mxGeometry x="210" y="230" width="60" height="30" as="geometry" />
        </mxCell>
        <mxCell id="UYZlVFqJ_CUnX_DfaC3p-10" value="X_test" style="text;html=1;align=center;verticalAlign=middle;whiteSpace=wrap;rounded=0;" vertex="1" parent="1">
          <mxGeometry x="205" y="340" width="60" height="30" as="geometry" />
        </mxCell>
        <mxCell id="UYZlVFqJ_CUnX_DfaC3p-11" value="" style="endArrow=classic;html=1;rounded=0;entryX=0;entryY=0.5;entryDx=0;entryDy=0;" edge="1" parent="1" target="UYZlVFqJ_CUnX_DfaC3p-17">
          <mxGeometry width="50" height="50" relative="1" as="geometry">
            <mxPoint x="365" y="369.75" as="sourcePoint" />
            <mxPoint x="455" y="369.5" as="targetPoint" />
          </mxGeometry>
        </mxCell>
        <mxCell id="UYZlVFqJ_CUnX_DfaC3p-12" value="y_pred" style="text;html=1;align=center;verticalAlign=middle;whiteSpace=wrap;rounded=0;" vertex="1" parent="1">
          <mxGeometry x="385" y="340" width="60" height="30" as="geometry" />
        </mxCell>
        <mxCell id="UYZlVFqJ_CUnX_DfaC3p-14" value="model = ...." style="text;html=1;align=center;verticalAlign=middle;whiteSpace=wrap;rounded=0;" vertex="1" parent="1">
          <mxGeometry x="60" y="130" width="70" height="30" as="geometry" />
        </mxCell>
        <mxCell id="UYZlVFqJ_CUnX_DfaC3p-15" value="model.fit(X_train, y_train)" style="text;html=1;align=center;verticalAlign=middle;whiteSpace=wrap;rounded=0;" vertex="1" parent="1">
          <mxGeometry x="22.5" y="270" width="155" height="30" as="geometry" />
        </mxCell>
        <mxCell id="UYZlVFqJ_CUnX_DfaC3p-16" value="model.predict(X_test)" style="text;html=1;align=center;verticalAlign=middle;whiteSpace=wrap;rounded=0;" vertex="1" parent="1">
          <mxGeometry x="22.5" y="400" width="155" height="30" as="geometry" />
        </mxCell>
        <mxCell id="UYZlVFqJ_CUnX_DfaC3p-17" value="evaluate (accuracy_score)" style="rounded=1;whiteSpace=wrap;html=1;" vertex="1" parent="1">
          <mxGeometry x="460" y="347.5" width="100" height="45" as="geometry" />
        </mxCell>
        <mxCell id="UYZlVFqJ_CUnX_DfaC3p-18" value="" style="endArrow=classic;html=1;rounded=0;entryX=1;entryY=0.5;entryDx=0;entryDy=0;" edge="1" parent="1" target="UYZlVFqJ_CUnX_DfaC3p-17">
          <mxGeometry width="50" height="50" relative="1" as="geometry">
            <mxPoint x="640" y="370" as="sourcePoint" />
            <mxPoint x="695" y="360.25" as="targetPoint" />
          </mxGeometry>
        </mxCell>
        <mxCell id="UYZlVFqJ_CUnX_DfaC3p-19" value="y_test" style="text;html=1;align=center;verticalAlign=middle;whiteSpace=wrap;rounded=0;" vertex="1" parent="1">
          <mxGeometry x="570" y="340" width="60" height="30" as="geometry" />
        </mxCell>
        <mxCell id="UYZlVFqJ_CUnX_DfaC3p-20" value="" style="endArrow=classic;html=1;rounded=0;" edge="1" parent="1" source="UYZlVFqJ_CUnX_DfaC3p-17">
          <mxGeometry width="50" height="50" relative="1" as="geometry">
            <mxPoint x="510" y="442.5" as="sourcePoint" />
            <mxPoint x="510" y="440" as="targetPoint" />
          </mxGeometry>
        </mxCell>
        <mxCell id="UYZlVFqJ_CUnX_DfaC3p-21" value="test score" style="text;html=1;align=center;verticalAlign=middle;whiteSpace=wrap;rounded=0;" vertex="1" parent="1">
          <mxGeometry x="480" y="435" width="60" height="30" as="geometry" />
        </mxCell>
        <mxCell id="UYZlVFqJ_CUnX_DfaC3p-22" value="1 - Creae Model" style="rounded=1;whiteSpace=wrap;html=1;" vertex="1" parent="1">
          <mxGeometry x="40" y="70" width="120" height="60" as="geometry" />
        </mxCell>
        <mxCell id="UYZlVFqJ_CUnX_DfaC3p-23" value="train the model with training ddta" style="rounded=1;whiteSpace=wrap;html=1;" vertex="1" parent="1">
          <mxGeometry x="40" y="210" width="120" height="60" as="geometry" />
        </mxCell>
        <mxCell id="UYZlVFqJ_CUnX_DfaC3p-24" value="Test the model with test data" style="rounded=1;whiteSpace=wrap;html=1;" vertex="1" parent="1">
          <mxGeometry x="40" y="340" width="120" height="60" as="geometry" />
        </mxCell>
      </root>
    </mxGraphModel>
  </diagram>
</mxfile>
